<mxfile host="app.diagrams.net" agent="Mozilla/5.0 (X11; Ubuntu; Linux x86_64; rv:131.0) Gecko/20100101 Firefox/131.0" version="24.7.17">
  <diagram name="Page-1" id="-iYxys-qZHivKRTxRQhH">
    <mxGraphModel dx="2074" dy="1182" grid="1" gridSize="10" guides="1" tooltips="1" connect="1" arrows="1" fold="1" page="1" pageScale="1" pageWidth="850" pageHeight="1100" math="0" shadow="0">
      <root>
        <mxCell id="0" />
        <mxCell id="1" parent="0" />
        <mxCell id="b66CwS1TbO1OavZcbPs1-16" value="" style="endArrow=classic;html=1;rounded=0;" edge="1" parent="1">
          <mxGeometry width="50" height="50" relative="1" as="geometry">
            <mxPoint x="650" y="470" as="sourcePoint" />
            <mxPoint x="650" y="190" as="targetPoint" />
          </mxGeometry>
        </mxCell>
        <mxCell id="b66CwS1TbO1OavZcbPs1-4" value="" style="rounded=0;whiteSpace=wrap;html=1;sketch=1;curveFitting=1;jiggle=2;" vertex="1" parent="1">
          <mxGeometry x="340" y="330" width="460" height="360" as="geometry" />
        </mxCell>
        <mxCell id="b66CwS1TbO1OavZcbPs1-3" value="" style="rounded=0;whiteSpace=wrap;html=1;sketch=1;curveFitting=1;jiggle=2;" vertex="1" parent="1">
          <mxGeometry x="470" y="380" width="300" height="260" as="geometry" />
        </mxCell>
        <mxCell id="b66CwS1TbO1OavZcbPs1-11" style="edgeStyle=orthogonalEdgeStyle;rounded=0;orthogonalLoop=1;jettySize=auto;html=1;exitX=1;exitY=1;exitDx=0;exitDy=-15;exitPerimeter=0;entryX=0;entryY=0.75;entryDx=0;entryDy=0;" edge="1" parent="1" source="b66CwS1TbO1OavZcbPs1-1" target="b66CwS1TbO1OavZcbPs1-2">
          <mxGeometry relative="1" as="geometry" />
        </mxCell>
        <mxCell id="b66CwS1TbO1OavZcbPs1-1" value="volume" style="shape=cylinder3;whiteSpace=wrap;html=1;boundedLbl=1;backgroundOutline=1;size=15;sketch=1;curveFitting=1;jiggle=2;" vertex="1" parent="1">
          <mxGeometry x="370" y="450" width="60" height="80" as="geometry" />
        </mxCell>
        <mxCell id="b66CwS1TbO1OavZcbPs1-2" value="&lt;div&gt;main.py&lt;/div&gt;" style="rounded=0;whiteSpace=wrap;html=1;sketch=1;curveFitting=1;jiggle=2;" vertex="1" parent="1">
          <mxGeometry x="560" y="470" width="120" height="60" as="geometry" />
        </mxCell>
        <mxCell id="b66CwS1TbO1OavZcbPs1-5" value="&lt;div&gt;Some computer&lt;/div&gt;" style="text;html=1;align=center;verticalAlign=middle;resizable=0;points=[];autosize=1;strokeColor=none;fillColor=none;" vertex="1" parent="1">
          <mxGeometry x="690" y="298" width="110" height="30" as="geometry" />
        </mxCell>
        <mxCell id="b66CwS1TbO1OavZcbPs1-6" value="&lt;div&gt;Docker&lt;/div&gt;" style="text;html=1;align=center;verticalAlign=middle;resizable=0;points=[];autosize=1;strokeColor=none;fillColor=none;" vertex="1" parent="1">
          <mxGeometry x="690" y="350" width="60" height="30" as="geometry" />
        </mxCell>
        <mxCell id="b66CwS1TbO1OavZcbPs1-9" style="edgeStyle=orthogonalEdgeStyle;rounded=0;orthogonalLoop=1;jettySize=auto;html=1;exitX=0;exitY=0.25;exitDx=0;exitDy=0;" edge="1" parent="1" source="b66CwS1TbO1OavZcbPs1-2">
          <mxGeometry relative="1" as="geometry">
            <mxPoint x="430" y="485" as="targetPoint" />
          </mxGeometry>
        </mxCell>
        <mxCell id="b66CwS1TbO1OavZcbPs1-14" value="" style="endArrow=classic;html=1;rounded=0;" edge="1" parent="1">
          <mxGeometry width="50" height="50" relative="1" as="geometry">
            <mxPoint x="640" y="190" as="sourcePoint" />
            <mxPoint x="640" y="470" as="targetPoint" />
          </mxGeometry>
        </mxCell>
        <mxCell id="b66CwS1TbO1OavZcbPs1-15" value="REST API" style="edgeLabel;align=center;verticalAlign=middle;resizable=0;points=[];textShadow=0;fontStyle=1;fontSize=14;" vertex="1" connectable="0" parent="b66CwS1TbO1OavZcbPs1-14">
          <mxGeometry x="-0.5143" y="2" relative="1" as="geometry">
            <mxPoint x="2" y="22" as="offset" />
          </mxGeometry>
        </mxCell>
      </root>
    </mxGraphModel>
  </diagram>
</mxfile>
